# xmcd CD database file
#
# Track frame offsets:
#	150
#	16834
#	36109
#	55576
#	77702
#	89717
#	107906
#	120720
#	141903
#	150774
#	169192
#
# Disc length: 2462 seconds
#
# Revision: 0
# Processed by: cddbd v1.5.1PL2 Copyright (c) Steve Scherf et al.
# Submitted via: CDex 1.51
#
DISCID=83099c0b
DTITLE=Sweet Mama - Every Day
DYEAR=1999
DGENRE=Blues
TTITLE0=I've got my fingers crossed
TTITLE1=Tiger rag
TTITLE2=I'se muggin'
TTITLE3=I wonder
TTITLE4=Doin' the new low down
TTITLE5=You don't have to go
TTITLE6=Safronia
TTITLE7=Loving woman
TTITLE8=Durn tootin'
TTITLE9=Honeysuckle Rose
TTITLE10=Strange things happening everyday
EXTD=YEAR: 1999
EXTT0=
EXTT1=
EXTT2=
EXTT3=
EXTT4=
EXTT5=
EXTT6=
EXTT7=
EXTT8=
EXTT9=
EXTT10=
PLAYORDER=
